<svg xmlns="http://www.w3.org/2000/svg" viewBox="0 0 200 200">
  <!-- Fondo blanco -->
  <rect width="200" height="200" fill="#ffffff"/>

  <!-- Llama principal (roja) - MÁS GRANDE -->
  <path d="M 100 20 Q 70 50 70 90 Q 70 140 100 170 Q 130 140 130 90 Q 130 50 100 20" fill="#ff3333" stroke="#cc0000" stroke-width="2"/>

  <!-- Llama secundaria interior (naranja) -->
  <path d="M 100 45 Q 80 65 80 95 Q 80 135 100 160 Q 120 135 120 95 Q 120 65 100 45" fill="#ff8800" stroke="#ff6600" stroke-width="1"/>

  <!-- Llama interior amarilla (brillo) -->
  <path d="M 100 70 Q 88 85 88 105 Q 88 130 100 150 Q 112 130 112 105 Q 112 85 100 70" fill="#ffee00"/>

  <!-- Puntas de fuego adicionales (más visibles) -->
  <!-- Punta izquierda -->
  <path d="M 75 75 Q 55 55 65 25 Q 80 55 75 75" fill="#ff5533" opacity="0.9"/>

  <!-- Punta derecha -->
  <path d="M 125 75 Q 145 55 135 25 Q 120 55 125 75" fill="#ff5533" opacity="0.9"/>

  <!-- Punta superior izquierda -->
  <path d="M 85 25 Q 75 5 90 10 Q 90 25 85 25" fill="#ffaa00" opacity="0.8"/>

  <!-- Punta superior derecha -->
  <path d="M 115 25 Q 125 5 110 10 Q 110 25 115 25" fill="#ffaa00" opacity="0.8"/>
</svg>
